<?xml version="1.0" standalone="no"?>
<!DOCTYPE svg PUBLIC "-//W3C//DTD SVG 20010904//EN"
 "http://www.w3.org/TR/2001/REC-SVG-20010904/DTD/svg10.dtd">
<svg version="1.0" xmlns="http://www.w3.org/2000/svg"
 width="960.000000pt" height="151.000000pt" viewBox="0 0 960.000000 151.000000"
 preserveAspectRatio="xMidYMid meet">

<g transform="translate(0.000000,151.000000) scale(0.100000,-0.100000)"
fill="#000000" stroke="none">
<path d="M3430 735 l0 -415 2820 0 2820 0 0 415 0 415 -2820 0 -2820 0 0 -415z
m550 230 c31 -16 47 -39 61 -87 10 -38 -12 -107 -40 -127 -20 -13 -20 -14 12
-35 58 -39 70 -124 25 -182 -37 -46 -73 -54 -248 -54 l-160 0 0 250 0 250 160
0 c124 0 168 -3 190 -15z m665 -4 c94 -43 165 -168 151 -264 -27 -172 -222
-276 -373 -198 -187 96 -190 356 -4 453 66 35 162 38 226 9z m535 -136 c0
-120 4 -163 15 -185 18 -34 56 -47 91 -31 43 19 54 65 54 226 l0 145 75 0 75
0 0 -153 c0 -183 -12 -236 -67 -290 -102 -102 -294 -79 -363 43 -24 43 -25 55
-28 223 l-4 177 76 0 76 0 0 -155z m893 143 c22 -7 59 -30 81 -51 l41 -39 -35
-28 c-66 -54 -77 -57 -108 -27 -60 58 -162 24 -178 -59 -24 -129 100 -216 181
-128 l24 26 55 -33 c31 -19 56 -39 56 -45 0 -25 -80 -84 -136 -100 -248 -72
-439 221 -270 414 63 72 184 101 289 70z m497 -78 l0 -90 75 0 75 0 0 90 0 90
75 0 75 0 0 -250 0 -250 -75 0 -75 0 0 95 0 95 -75 0 -75 0 0 -95 0 -95 -75 0
-75 0 0 250 0 250 75 0 75 0 0 -90z m852 43 c9 -27 47 -139 86 -250 l71 -203
-78 0 -77 0 -12 45 -12 45 -64 0 -64 0 -11 -45 -11 -45 -75 0 c-41 0 -75 3
-75 8 0 5 123 364 165 480 3 8 27 12 73 12 l68 0 16 -47z m667 32 c62 -21 97
-50 128 -103 25 -41 28 -57 28 -132 0 -123 -37 -185 -135 -229 -38 -17 -66
-21 -177 -21 l-133 0 0 250 0 250 124 0 c83 0 137 -5 165 -15z m671 11 c0 -2
38 -115 85 -250 l85 -247 -77 3 -76 3 -15 43 -14 43 -61 -3 -60 -3 -15 -42
-14 -43 -74 0 c-41 0 -74 2 -74 4 0 3 133 387 160 464 12 32 12 32 81 32 38 0
69 -2 69 -4z"/>
<path d="M3780 825 l0 -35 54 0 c59 0 75 15 56 51 -8 15 -22 19 -60 19 l-50 0
0 -35z"/>
<path d="M3780 635 l0 -36 63 3 c62 3 62 3 62 33 0 30 0 30 -62 33 l-63 3 0
-36z"/>
<path d="M4467 824 c-67 -67 -36 -204 49 -220 76 -14 124 36 124 131 0 49 -4
60 -29 86 -40 40 -106 41 -144 3z"/>
<path d="M7321 749 c-7 -24 -15 -52 -17 -61 -4 -15 1 -18 31 -18 36 0 36 1 30
33 -4 17 -13 45 -19 61 l-12 29 -13 -44z"/>
<path d="M7950 725 l0 -125 30 0 c88 0 145 94 110 184 -17 46 -46 66 -95 66
l-45 0 0 -125z"/>
<path d="M8673 747 c-7 -23 -15 -50 -18 -59 -6 -15 -1 -18 29 -18 40 0 41 4
24 64 -16 59 -22 61 -35 13z"/>
<path d="M450 730 l0 -250 65 0 65 0 -2 248 -3 247 -62 3 -63 3 0 -251z"/>
<path d="M860 730 l0 -250 180 0 180 0 0 60 0 60 -115 0 -115 0 0 190 0 190
-65 0 -65 0 0 -250z"/>
<path d="M1420 976 c0 -2 38 -78 85 -168 l85 -165 0 -81 0 -82 60 0 60 0 0 76
c0 76 1 77 85 245 47 92 85 171 85 174 0 3 -30 5 -67 3 l-67 -3 -44 -102 c-25
-57 -48 -103 -52 -103 -4 0 -27 47 -50 105 l-43 105 -69 0 c-37 0 -68 -2 -68
-4z"/>
<path d="M2120 730 l0 -250 175 0 175 0 0 60 0 60 -110 0 -110 0 0 40 0 40 90
0 90 0 0 55 0 55 -90 0 -90 0 0 35 0 35 105 0 105 0 0 60 0 60 -170 0 -170 0
0 -250z"/>
<path d="M2838 970 c-70 -21 -118 -84 -118 -155 0 -75 38 -111 160 -150 67
-21 90 -39 72 -57 -19 -19 -87 -12 -146 15 l-53 25 -27 -55 c-14 -30 -24 -58
-21 -63 12 -19 138 -50 203 -50 108 0 176 46 183 125 8 99 -24 138 -148 179
-76 25 -101 45 -87 67 9 15 71 10 124 -10 l51 -19 25 50 c14 28 22 54 17 58
-4 5 -36 18 -70 29 -64 22 -118 25 -165 11z"/>
</g>
</svg>
